<svg xmlns="http://www.w3.org/2000/svg" viewBox="0 0 320 240" width="320" height="240">
  <rect width="320" height="240" fill="#F2B33D"/>
  <circle cx="28" cy="34" r="5" fill="#FBF7F0" stroke="#1B2A41" stroke-width="2"/><path d="M292 196l3 7 7 3-7 3-3 7-3-7-7-3 7-3z" fill="#FBF7F0" stroke="#1B2A41" stroke-width="2" stroke-linejoin="round"/>
  <g transform="rotate(-4 160 120)">
    <rect x="52" y="34" width="216" height="172" rx="16" fill="#1B2A41"/>
    <rect x="46" y="28" width="216" height="172" rx="16" fill="#FBF7F0" stroke="#1B2A41" stroke-width="4"/>
    <rect x="48" y="30" width="212" height="168" rx="14" fill="#8FD08A"/>
    <ellipse cx="154" cy="162" rx="64" ry="18" fill="#3B2A22" stroke="#1B2A41" stroke-width="3"/>
    <path d="M114 162V110a40 40 0 0 1 80 0v52z" fill="#9B6B4E" stroke="#1B2A41" stroke-width="3.5"/>
    <ellipse cx="154" cy="128" rx="20" ry="15" fill="#F6DDBF" stroke="#1B2A41" stroke-width="3"/>
    <ellipse cx="154" cy="119" rx="8" ry="6" fill="#E8839B" stroke="#1B2A41" stroke-width="3"/>
    <path d="M134 96l9 9M143 96l-9 9M165 96l9 9M174 96l-9 9" stroke="#1B2A41" stroke-width="3.5" stroke-linecap="round"/>
    <path d="M86 172a68 18 0 0 0 136 0v12a68 18 0 0 1-136 0z" fill="#A0714F" stroke="#1B2A41" stroke-width="3"/>
    <g fill="#F2B33D" stroke="#1B2A41" stroke-width="2"><path d="M110 66l3 7 7 3-7 3-3 7-3-7-7-3 7-3z"/><path d="M198 60l2.5 6 6 2.5-6 2.5-2.5 6-2.5-6-6-2.5 6-2.5z"/></g>
    <g transform="translate(206 84) rotate(35)"><rect x="-6" y="-2" width="12" height="54" rx="4" fill="#C98E5A" stroke="#1B2A41" stroke-width="3"/><rect x="-22" y="-20" width="44" height="24" rx="7" fill="#E8553D" stroke="#1B2A41" stroke-width="3"/></g>
  </g>
</svg>
