<svg xmlns="http://www.w3.org/2000/svg" viewBox="0 0 320 240" width="320" height="240">
  <rect width="320" height="240" fill="#6FA9D8"/>
  <circle cx="30" cy="36" r="5" fill="#FBF7F0" stroke="#1B2A41" stroke-width="2"/><path d="M292 194l3 7 7 3-7 3-3 7-3-7-7-3 7-3z" fill="#FBF7F0" stroke="#1B2A41" stroke-width="2" stroke-linejoin="round"/>
  <g transform="rotate(-4 160 120)">
    <rect x="52" y="34" width="216" height="172" rx="16" fill="#1B2A41"/>
    <rect x="46" y="28" width="216" height="172" rx="16" fill="#FBF7F0" stroke="#1B2A41" stroke-width="4"/>
    <rect x="146.6" y="69.8" width="16.9" height="16.9" fill="#F2B33D"/><text x="87.45" y="48.506" text-anchor="middle" font-family="Arial, sans-serif" font-weight="700" font-size="12" fill="#226E65">5</text><text x="104.35000000000001" y="48.506" text-anchor="middle" font-family="Arial, sans-serif" font-weight="700" font-size="12" fill="#1B2A41">3</text><text x="87.45" y="65.40599999999999" text-anchor="middle" font-family="Arial, sans-serif" font-weight="700" font-size="12" fill="#1B2A41">6</text><text x="121.25" y="65.40599999999999" text-anchor="middle" font-family="Arial, sans-serif" font-weight="700" font-size="12" fill="#226E65">9</text><text x="104.35000000000001" y="82.306" text-anchor="middle" font-family="Arial, sans-serif" font-weight="700" font-size="12" fill="#226E65">8</text><text x="138.14999999999998" y="48.506" text-anchor="middle" font-family="Arial, sans-serif" font-weight="700" font-size="12" fill="#226E65">7</text><text x="155.04999999999998" y="65.40599999999999" text-anchor="middle" font-family="Arial, sans-serif" font-weight="700" font-size="12" fill="#1B2A41">1</text><text x="171.95" y="82.306" text-anchor="middle" font-family="Arial, sans-serif" font-weight="700" font-size="12" fill="#1B2A41">5</text><text x="138.14999999999998" y="99.20599999999999" text-anchor="middle" font-family="Arial, sans-serif" font-weight="700" font-size="12" fill="#226E65">4</text><text x="188.84999999999997" y="116.106" text-anchor="middle" font-family="Arial, sans-serif" font-weight="700" font-size="12" fill="#1B2A41">2</text><text x="205.74999999999997" y="133.006" text-anchor="middle" font-family="Arial, sans-serif" font-weight="700" font-size="12" fill="#226E65">6</text><text x="155.04999999999998" y="116.106" text-anchor="middle" font-family="Arial, sans-serif" font-weight="700" font-size="12" fill="#1B2A41">8</text><text x="222.64999999999998" y="99.20599999999999" text-anchor="middle" font-family="Arial, sans-serif" font-weight="700" font-size="12" fill="#1B2A41">3</text><text x="121.25" y="133.006" text-anchor="middle" font-family="Arial, sans-serif" font-weight="700" font-size="12" fill="#1B2A41">1</text><text x="188.84999999999997" y="65.40599999999999" text-anchor="middle" font-family="Arial, sans-serif" font-weight="700" font-size="12" fill="#1B2A41">4</text><text x="104.35000000000001" y="116.106" text-anchor="middle" font-family="Arial, sans-serif" font-weight="700" font-size="12" fill="#1B2A41">7</text><text x="222.64999999999998" y="48.506" text-anchor="middle" font-family="Arial, sans-serif" font-weight="700" font-size="12" fill="#1B2A41">9</text><path d="M79.0 36V188.1M79 36.0H231.1" stroke="#1B2A41" stroke-width="3"/><path d="M95.9 36V188.1M79 52.9H231.1" stroke="#1B2A41" stroke-width="1"/><path d="M112.8 36V188.1M79 69.8H231.1" stroke="#1B2A41" stroke-width="1"/><path d="M129.7 36V188.1M79 86.69999999999999H231.1" stroke="#1B2A41" stroke-width="3"/><path d="M146.6 36V188.1M79 103.6H231.1" stroke="#1B2A41" stroke-width="1"/><path d="M163.5 36V188.1M79 120.5H231.1" stroke="#1B2A41" stroke-width="1"/><path d="M180.39999999999998 36V188.1M79 137.39999999999998H231.1" stroke="#1B2A41" stroke-width="3"/><path d="M197.29999999999998 36V188.1M79 154.29999999999998H231.1" stroke="#1B2A41" stroke-width="1"/><path d="M214.2 36V188.1M79 171.2H231.1" stroke="#1B2A41" stroke-width="1"/><path d="M231.1 36V188.1M79 188.1H231.1" stroke="#1B2A41" stroke-width="3"/>
  </g>
</svg>
