<svg xmlns="http://www.w3.org/2000/svg" viewBox="0 0 320 240" width="320" height="240">
  <rect width="320" height="240" fill="#1B2A41"/>
  <g fill="#FBF7F0" opacity="0.6"><rect x="30" y="30" width="2" height="2"/><rect x="92" y="190" width="2" height="2"/><rect x="280" y="40" width="2" height="2"/><rect x="250" y="210" width="2" height="2"/><rect x="150" y="20" width="2" height="2"/><rect x="20" y="130" width="2" height="2"/><rect x="300" y="120" width="2" height="2"/></g>
  <g stroke="#0B111B" stroke-width="3.5" stroke-linejoin="round">
    <path d="M232 46l22-8 22 10 10 22-6 24-24 12-24-6-12-22z" fill="#6FA9D8"/>
    <path d="M40 150l14-12 18 2 8 16-6 18-18 6-14-10z" fill="#F2B33D"/>
    <path d="M250 160l10-6 12 4 2 12-10 8-12-4z" fill="#7A4E8C"/>
    <path d="M70 40l10-4 8 6-2 10-10 2-7-6z" fill="#2F8F83"/>
  </g>
  <g fill="#000" opacity="0.18"><circle cx="248" cy="66" r="6"/><circle cx="266" cy="84" r="4"/><circle cx="58" cy="160" r="5"/></g>
  <g fill="#F2B33D"><circle cx="190" cy="96" r="5"/><circle cx="214" cy="80" r="5"/></g>
  <g fill="#F2B33D" opacity="0.9"><circle cx="232" cy="76" r="3"/><circle cx="244" cy="96" r="3"/><circle cx="222" cy="98" r="2.5"/></g>
  <g transform="translate(150 128) rotate(52) scale(2.3)" stroke="#0B111B" stroke-width="1.6" stroke-linejoin="round">
    <path d="M-6 11l6 14 6-14z" fill="#F2B33D"/>
    <path d="M-8 4l-6 10 8-2z M8 4l6 10-8-2z" fill="#2F8F83"/>
    <path d="M0-18q10 12 8 30h-16q-2-18 8-30z" fill="#E8553D"/>
    <circle cx="0" cy="-3" r="4" fill="#FBF7F0"/>
  </g>
</svg>
